<svg id="SvgjsSvg1224" width="883.2000122070312" height="741.8999938964844" xmlns="http://www.w3.org/2000/svg" version="1.1" xmlns:xlink="http://www.w3.org/1999/xlink" xmlns:svgjs="http://svgjs.com/svgjs"><defs id="SvgjsDefs1225"><marker id="SvgjsMarker1255" markerWidth="14" markerHeight="10" refX="10" refY="5" viewBox="0 0 14 10" orient="auto" markerUnits="userSpaceOnUse" stroke-dasharray="0,0"><path id="SvgjsPath1256" d="M0,0 L14,5 L0,10 L0,0" fill="#323232" stroke="#323232" stroke-width="1"></path></marker><marker id="SvgjsMarker1273" markerWidth="14" markerHeight="10" refX="10" refY="5" viewBox="0 0 14 10" orient="auto" markerUnits="userSpaceOnUse" stroke-dasharray="0,0"><path id="SvgjsPath1274" d="M0,0 L14,5 L0,10 L0,0" fill="#f5f5f5" stroke="#f5f5f5" stroke-width="1"></path></marker><marker id="SvgjsMarker1289" markerWidth="14" markerHeight="10" refX="10" refY="5" viewBox="0 0 14 10" orient="auto" markerUnits="userSpaceOnUse" stroke-dasharray="0,0"><path id="SvgjsPath1290" d="M0,0 L14,5 L0,10 L0,0" fill="#323232" stroke="#323232" stroke-width="1"></path></marker><marker id="SvgjsMarker1311" markerWidth="14" markerHeight="10" refX="10" refY="5" viewBox="0 0 14 10" orient="auto" markerUnits="userSpaceOnUse" stroke-dasharray="0,0"><path id="SvgjsPath1312" d="M0,0 L14,5 L0,10 L0,0" fill="#323232" stroke="#323232" stroke-width="1"></path></marker></defs><g id="SvgjsG1226" transform="translate(221.1999969482422,24.99999237060547)"><path id="SvgjsPath1227" d="M 0 4Q 0 0 4 0L 632.8000030517578 0Q 636.8000030517578 0 636.8000030517578 4L 636.8000030517578 357.4000015258789Q 636.8000030517578 361.4000015258789 632.8000030517578 361.4000015258789L 4 361.4000015258789Q 0 361.4000015258789 0 357.4000015258789Z" stroke="rgba(186,104,200,1)" stroke-width="2" fill-opacity="1" fill="#ba68c8"></path><g id="SvgjsG1228"><text id="SvgjsText1229" font-family="微软雅黑" text-anchor="middle" font-size="13px" width="617px" fill="#f5f5f5" font-weight="700" align="middle" lineHeight="125%" anchor="middle" family="微软雅黑" size="13px" weight="700" font-style="" opacity="1" y="170.07500076293945" transform="rotate(0)"></text></g></g><g id="SvgjsG1230" transform="translate(258.1999969482422,213.99999237060547)"><path id="SvgjsPath1231" d="M 0 4Q 0 0 4 0L 221.8000030517578 0Q 225.8000030517578 0 225.8000030517578 4L 225.8000030517578 112.4000015258789Q 225.8000030517578 116.4000015258789 221.8000030517578 116.4000015258789L 4 116.4000015258789Q 0 116.4000015258789 0 112.4000015258789Z" stroke="rgba(56,142,60,1)" stroke-width="2" fill-opacity="1" fill="#1b5e20"></path><g id="SvgjsG1232"><text id="SvgjsText1233" font-family="微软雅黑" text-anchor="middle" font-size="13px" width="206px" fill="#f5f5f5" font-weight="700" align="middle" lineHeight="125%" anchor="middle" family="微软雅黑" size="13px" weight="700" font-style="" opacity="1" y="47.57500076293945" transform="rotate(0)"><tspan id="SvgjsTspan1234" dy="16" x="113"><tspan id="SvgjsTspan1235" style="text-decoration:;">AS(Authentication Server)</tspan></tspan></text></g></g><g id="SvgjsG1236" transform="translate(607.1999969482422,214.49999237060547)"><path id="SvgjsPath1237" d="M 0 4Q 0 0 4 0L 214.8000030517578 0Q 218.8000030517578 0 218.8000030517578 4L 218.8000030517578 111.4000015258789Q 218.8000030517578 115.4000015258789 214.8000030517578 115.4000015258789L 4 115.4000015258789Q 0 115.4000015258789 0 111.4000015258789Z" stroke="rgba(56,142,60,1)" stroke-width="2" fill-opacity="1" fill="#0d47a1"></path><g id="SvgjsG1238"><text id="SvgjsText1239" font-family="微软雅黑" text-anchor="middle" font-size="13px" width="199px" fill="#f5f5f5" font-weight="700" align="middle" lineHeight="125%" anchor="middle" family="微软雅黑" size="13px" weight="700" font-style="" opacity="1" y="47.07500076293945" transform="rotate(0)"><tspan id="SvgjsTspan1240" dy="16" x="109.5"><tspan id="SvgjsTspan1241" style="text-decoration:;">TGS(Ticket Granting Server)</tspan></tspan></text></g></g><g id="SvgjsG1242" transform="translate(221.1999969482422,34.399986267089844)"><path id="SvgjsPath1243" d="M 0 0L 225.8000030517578 0L 225.8000030517578 35L 0 35Z" stroke="none" fill="none"></path><g id="SvgjsG1244"><text id="SvgjsText1245" font-family="微软雅黑" text-anchor="middle" font-size="13px" width="226px" fill="#f5f5f5" font-weight="700" align="middle" lineHeight="125%" anchor="middle" family="微软雅黑" size="13px" weight="700" font-style="" opacity="1" y="6.875" transform="rotate(0)"><tspan id="SvgjsTspan1246" dy="16" x="113"><tspan id="SvgjsTspan1247" style="text-decoration:;">KDC(Key Distribution Center)</tspan></tspan></text></g></g><g id="SvgjsG1248" transform="translate(115,524.3999938964844)"><path id="SvgjsPath1249" d="M 23.333333333333332 12.5C 23.333333333333332 -4.166666666666666 46.666666666666664 -4.166666666666666 46.666666666666664 12.5C 46.666666666666664 29.166666666666668 23.333333333333332 29.166666666666668 23.333333333333332 12.5M 35 25L 35 75M 35 75L 5.833333333333333 100M 35 75L 64.16666666666666 100M 0 50L 70 50" stroke="rgba(50,50,50,1)" stroke-width="2" fill-opacity="1" fill="#ffffff"></path><path id="SvgjsPath1250" d="M 0 0L 70 0L 70 100L 0 100Z" stroke="none" fill="none"></path><g id="SvgjsG1251"><text id="SvgjsText1252" font-family="微软雅黑" text-anchor="middle" font-size="13px" width="110px" fill="#323232" font-weight="400" align="middle" lineHeight="125%" anchor="middle" family="微软雅黑" size="13px" weight="400" font-style="" opacity="1" y="104.375" transform="rotate(0)"></text></g></g><g id="SvgjsG1253"><path id="SvgjsPath1254" d="M150.4937227042967 523.5303745020008L259.4814173096345 331.5646978903361" stroke="#323232" stroke-width="2" fill="none" marker-end="url(#SvgjsMarker1255)"></path></g><g id="SvgjsG1257" transform="translate(25,414.39999198913574)"><path id="SvgjsPath1258" d="M 0 15C 0 -5 30 -5 30 15C 30 35 0 35 0 15Z" stroke="rgba(50,50,50,1)" stroke-width="2" fill-opacity="1" fill="#616161"></path><g id="SvgjsG1259"><text id="SvgjsText1260" font-family="微软雅黑" text-anchor="middle" font-size="13px" width="10px" fill="#f5f5f5" font-weight="400" align="middle" lineHeight="125%" anchor="middle" family="微软雅黑" size="13px" weight="400" font-style="" opacity="1" y="4.375" transform="rotate(0)"><tspan id="SvgjsTspan1261" dy="16" x="15"><tspan id="SvgjsTspan1262" style="text-decoration:;">1</tspan></tspan></text></g></g><g id="SvgjsG1263" transform="translate(61,409.39999198913574)"><path id="SvgjsPath1264" d="M 0 0L 141 0L 141 40L 0 40Z" stroke="none" fill="none"></path><g id="SvgjsG1265"><text id="SvgjsText1266" font-family="微软雅黑" text-anchor="middle" font-size="13px" width="141px" fill="#323232" font-weight="700" align="middle" lineHeight="125%" anchor="middle" family="微软雅黑" size="13px" weight="700" font-style="" opacity="1" y="0.875" transform="rotate(0)"><tspan id="SvgjsTspan1267" dy="16" x="70.5"><tspan id="SvgjsTspan1268" style="text-decoration:;">[ClientID,ServerID]</tspan></tspan><tspan id="SvgjsTspan1269" dy="16" x="70.5"><tspan id="SvgjsTspan1270" style="text-decoration:;">$plaintext</tspan></tspan></text></g></g><g id="SvgjsG1271"><path id="SvgjsPath1272" d="M371.92253647250146 213.43128221488428L516.5999984741211 113.39998626708984" stroke="#f5f5f5" stroke-width="2" fill="none" marker-end="url(#SvgjsMarker1273)"></path></g><g id="SvgjsG1275" transform="translate(348,112.39999389648438)"><path id="SvgjsPath1276" d="M 0 15C 0 -5 30 -5 30 15C 30 35 0 35 0 15Z" stroke="rgba(50,50,50,1)" stroke-width="2" fill-opacity="1" fill="#616161"></path><g id="SvgjsG1277"><text id="SvgjsText1278" font-family="微软雅黑" text-anchor="middle" font-size="13px" width="10px" fill="#f5f5f5" font-weight="400" align="middle" lineHeight="125%" anchor="middle" family="微软雅黑" size="13px" weight="400" font-style="" opacity="1" y="4.375" transform="rotate(0)"><tspan id="SvgjsTspan1279" dy="16" x="15"><tspan id="SvgjsTspan1280" style="text-decoration:;">2</tspan></tspan></text></g></g><g id="SvgjsG1281" transform="translate(364,104.39999389648438)"><path id="SvgjsPath1282" d="M 0 0L 120 0L 120 40L 0 40Z" stroke="none" fill="none"></path><g id="SvgjsG1283"><text id="SvgjsText1284" font-family="微软雅黑" text-anchor="middle" font-size="13px" width="120px" fill="#323232" font-weight="700" align="middle" lineHeight="125%" anchor="middle" family="微软雅黑" size="13px" weight="700" font-style="" opacity="1" y="9.375" transform="rotate(0)"><tspan id="SvgjsTspan1285" dy="16" x="60"><tspan id="SvgjsTspan1286" style="text-decoration:;">查找ClientID</tspan></tspan></text></g></g><g id="SvgjsG1287"><path id="SvgjsPath1288" d="M370.4935527932432 331.1951188150629L187.1832044511604 571.5375441896016" stroke="#323232" stroke-width="2" fill="none" marker-end="url(#SvgjsMarker1289)"></path></g><g id="SvgjsG1291" transform="translate(271,470.3999938964844)"><path id="SvgjsPath1292" d="M 0 14.5C 0 -4.833333333333333 29 -4.833333333333333 29 14.5C 29 33.833333333333336 0 33.833333333333336 0 14.5Z" stroke="rgba(50,50,50,1)" stroke-width="2" fill-opacity="1" fill="#616161"></path><g id="SvgjsG1293"><text id="SvgjsText1294" font-family="微软雅黑" text-anchor="middle" font-size="13px" width="9px" fill="#f5f5f5" font-weight="400" align="middle" lineHeight="125%" anchor="middle" family="微软雅黑" size="13px" weight="400" font-style="" opacity="1" y="3.875" transform="rotate(0)"><tspan id="SvgjsTspan1295" dy="16" x="14.5"><tspan id="SvgjsTspan1296" style="text-decoration:;">3</tspan></tspan></text></g></g><g id="SvgjsG1297" transform="translate(282,468.3999938964844)"><path id="SvgjsPath1298" d="M 0 0L 429 0L 429 33L 0 33Z" stroke="none" fill="none"></path><g id="SvgjsG1299"><text id="SvgjsText1300" font-family="微软雅黑" text-anchor="middle" font-size="13px" width="429px" fill="#1b5e20" font-weight="700" align="middle" lineHeight="125%" anchor="middle" family="微软雅黑" size="13px" weight="700" font-style="" opacity="1" y="5.875" transform="rotate(0)"><tspan id="SvgjsTspan1301" dy="16" x="214.5"><tspan id="SvgjsTspan1302" style="text-decoration:;">Session消息: [TGSSessionKey,有效期,...] $(client_secret_key)</tspan></tspan></text></g></g><g id="SvgjsG1303" transform="translate(291.5,496.3999938964844)"><path id="SvgjsPath1304" d="M 0 0L 481.5 0L 481.5 31.999998092651367L 0 31.999998092651367Z" stroke="none" fill="none"></path><g id="SvgjsG1305"><text id="SvgjsText1306" font-family="微软雅黑" text-anchor="middle" font-size="13px" width="482px" fill="#212121" font-weight="700" align="middle" lineHeight="125%" anchor="middle" family="微软雅黑" size="13px" weight="700" font-style="" opacity="1" y="5.374999046325684" transform="rotate(0)"><tspan id="SvgjsTspan1307" dy="16" x="241"><tspan id="SvgjsTspan1308" style="text-decoration:;">TGT消息: [TGSSessionKey,HTTPServiceId,有效期,...] $(TGS_secret_key)</tspan></tspan></text></g></g><g id="SvgjsG1309"><path id="SvgjsPath1310" d="M178.71849643474502 624.433818372754C 200 687.4000015258789 96 677.4000015258789 120.85001769060011 627.0309500797798" stroke="#323232" stroke-width="2" fill="none" marker-end="url(#SvgjsMarker1311)"></path></g><g id="SvgjsG1313" transform="translate(85,684.4000015258789)"><path id="SvgjsPath1314" d="M 0 15C 0 -5 30 -5 30 15C 30 35 0 35 0 15Z" stroke="rgba(50,50,50,1)" stroke-width="2" fill-opacity="1" fill="#616161"></path><g id="SvgjsG1315"><text id="SvgjsText1316" font-family="微软雅黑" text-anchor="middle" font-size="13px" width="10px" fill="#f5f5f5" font-weight="400" align="middle" lineHeight="125%" anchor="middle" family="微软雅黑" size="13px" weight="400" font-style="" opacity="1" y="4.375" transform="rotate(0)"><tspan id="SvgjsTspan1317" dy="16" x="15"><tspan id="SvgjsTspan1318" style="text-decoration:;">4</tspan></tspan></text></g></g><g id="SvgjsG1319" transform="translate(71,683.9000015258789)"><path id="SvgjsPath1320" d="M 0 0L 429 0L 429 33L 0 33Z" stroke="none" fill="none"></path><g id="SvgjsG1321"><text id="SvgjsText1322" font-family="微软雅黑" text-anchor="middle" font-size="13px" width="429px" fill="#1b5e20" font-weight="700" align="middle" lineHeight="125%" anchor="middle" family="微软雅黑" size="13px" weight="700" font-style="" opacity="1" y="5.875" transform="rotate(0)"><tspan id="SvgjsTspan1323" dy="16" x="214.5"><tspan id="SvgjsTspan1324" style="text-decoration:;">Session消息: [TGSSessionKey,有效期,...] $plaintext</tspan></tspan></text></g></g><g id="SvgjsG1325" transform="translate(530,77.39999389648438)"><path id="SvgjsPath1326" d="M 6 0L 48 0C 56 0 56 18 48 18L 6 18C -2 18 -2 0 6 0Z" stroke="rgba(0,151,167,1)" stroke-width="2" fill-opacity="1" fill="#0097a7"></path><g id="SvgjsG1327"><text id="SvgjsText1328" font-family="微软雅黑" text-anchor="middle" font-size="13px" width="34px" fill="#323232" font-weight="400" align="middle" lineHeight="125%" anchor="middle" family="微软雅黑" size="13px" weight="400" font-style="" opacity="1" y="-1.625" transform="rotate(0)"></text></g></g><g id="SvgjsG1329" transform="translate(530,101.39999389648438)"><path id="SvgjsPath1330" d="M 6 0L 48 0C 56 0 56 18 48 18L 6 18C -2 18 -2 0 6 0Z" stroke="rgba(0,151,167,1)" stroke-width="2" fill-opacity="1" fill="#0097a7"></path><g id="SvgjsG1331"><text id="SvgjsText1332" font-family="微软雅黑" text-anchor="middle" font-size="13px" width="34px" fill="#323232" font-weight="400" align="middle" lineHeight="125%" anchor="middle" family="微软雅黑" size="13px" weight="400" font-style="" opacity="1" y="-1.625" transform="rotate(0)"></text></g></g><g id="SvgjsG1333" transform="translate(497,112.39999389648438)"><path id="SvgjsPath1334" d="M 0 0L 120 0L 120 40L 0 40Z" stroke="none" fill="none"></path><g id="SvgjsG1335"><text id="SvgjsText1336" font-family="微软雅黑" text-anchor="middle" font-size="13px" width="120px" fill="#f5f5f5" font-weight="700" align="middle" lineHeight="125%" anchor="middle" family="微软雅黑" size="13px" weight="700" font-style="" opacity="1" y="9.375" transform="rotate(0)"><tspan id="SvgjsTspan1337" dy="16" x="60"><tspan id="SvgjsTspan1338" style="text-decoration:;">KerberosDB</tspan></tspan></text></g></g></svg>