<svg id="SvgjsSvg1115" width="882.2000122070312" height="741.8999977111816" xmlns="http://www.w3.org/2000/svg" version="1.1" xmlns:xlink="http://www.w3.org/1999/xlink" xmlns:svgjs="http://svgjs.com/svgjs"><defs id="SvgjsDefs1116"><marker id="SvgjsMarker1146" markerWidth="14" markerHeight="10" refX="10" refY="5" viewBox="0 0 14 10" orient="auto" markerUnits="userSpaceOnUse" stroke-dasharray="0,0"><path id="SvgjsPath1147" d="M0,0 L14,5 L0,10 L0,0" fill="#323232" stroke="#323232" stroke-width="1"></path></marker><pattern id="SvgjsPattern1164" x="0" y="0" width="75" height="75" patternUnits="userSpaceOnUse"><image id="SvgjsImage1165" xlink:href="https://www.processon.com/assets/images/designer/network_aliyun/Database/datamanagement.svg" width="75" height="75" preserveAspectRatio="none" crossOrigin="anonymous" x="0" y="0"></image></pattern><marker id="SvgjsMarker1172" markerWidth="14" markerHeight="10" refX="10" refY="5" viewBox="0 0 14 10" orient="auto" markerUnits="userSpaceOnUse" stroke-dasharray="0,0"><path id="SvgjsPath1173" d="M0,0 L14,5 L0,10 L0,0" fill="#f5f5f5" stroke="#f5f5f5" stroke-width="1"></path></marker><marker id="SvgjsMarker1188" markerWidth="14" markerHeight="10" refX="10" refY="5" viewBox="0 0 14 10" orient="auto" markerUnits="userSpaceOnUse" stroke-dasharray="0,0"><path id="SvgjsPath1189" d="M0,0 L14,5 L0,10 L0,0" fill="#323232" stroke="#323232" stroke-width="1"></path></marker><marker id="SvgjsMarker1210" markerWidth="14" markerHeight="10" refX="10" refY="5" viewBox="0 0 14 10" orient="auto" markerUnits="userSpaceOnUse" stroke-dasharray="0,0"><path id="SvgjsPath1211" d="M0,0 L14,5 L0,10 L0,0" fill="#323232" stroke="#323232" stroke-width="1"></path></marker></defs><g id="SvgjsG1117" transform="translate(220.1999969482422,24.999998092651367)"><path id="SvgjsPath1118" d="M 0 4Q 0 0 4 0L 632.8000030517578 0Q 636.8000030517578 0 636.8000030517578 4L 636.8000030517578 357.4000015258789Q 636.8000030517578 361.4000015258789 632.8000030517578 361.4000015258789L 4 361.4000015258789Q 0 361.4000015258789 0 357.4000015258789Z" stroke="rgba(186,104,200,1)" stroke-width="2" fill-opacity="1" fill="#ba68c8"></path><g id="SvgjsG1119"><text id="SvgjsText1120" font-family="微软雅黑" text-anchor="middle" font-size="13px" width="617px" fill="#f5f5f5" font-weight="700" align="middle" lineHeight="125%" anchor="middle" family="微软雅黑" size="13px" weight="700" font-style="" opacity="1" y="170.07500076293945" transform="rotate(0)"></text></g></g><g id="SvgjsG1121" transform="translate(258.1999969482422,213.99999809265137)"><path id="SvgjsPath1122" d="M 0 4Q 0 0 4 0L 221.8000030517578 0Q 225.8000030517578 0 225.8000030517578 4L 225.8000030517578 112.4000015258789Q 225.8000030517578 116.4000015258789 221.8000030517578 116.4000015258789L 4 116.4000015258789Q 0 116.4000015258789 0 112.4000015258789Z" stroke="rgba(56,142,60,1)" stroke-width="2" fill-opacity="1" fill="#1b5e20"></path><g id="SvgjsG1123"><text id="SvgjsText1124" font-family="微软雅黑" text-anchor="middle" font-size="13px" width="206px" fill="#f5f5f5" font-weight="700" align="middle" lineHeight="125%" anchor="middle" family="微软雅黑" size="13px" weight="700" font-style="" opacity="1" y="47.57500076293945" transform="rotate(0)"><tspan id="SvgjsTspan1125" dy="16" x="113"><tspan id="SvgjsTspan1126" style="text-decoration:;">AS(Authentication Server)</tspan></tspan></text></g></g><g id="SvgjsG1127" transform="translate(607.1999969482422,214.49999809265137)"><path id="SvgjsPath1128" d="M 0 4Q 0 0 4 0L 214.8000030517578 0Q 218.8000030517578 0 218.8000030517578 4L 218.8000030517578 111.4000015258789Q 218.8000030517578 115.4000015258789 214.8000030517578 115.4000015258789L 4 115.4000015258789Q 0 115.4000015258789 0 111.4000015258789Z" stroke="rgba(56,142,60,1)" stroke-width="2" fill-opacity="1" fill="#0d47a1"></path><g id="SvgjsG1129"><text id="SvgjsText1130" font-family="微软雅黑" text-anchor="middle" font-size="13px" width="199px" fill="#f5f5f5" font-weight="700" align="middle" lineHeight="125%" anchor="middle" family="微软雅黑" size="13px" weight="700" font-style="" opacity="1" y="47.07500076293945" transform="rotate(0)"><tspan id="SvgjsTspan1131" dy="16" x="109.5"><tspan id="SvgjsTspan1132" style="text-decoration:;">TGS(Ticket Granting Server)</tspan></tspan></text></g></g><g id="SvgjsG1133" transform="translate(221.1999969482422,34.39999198913574)"><path id="SvgjsPath1134" d="M 0 0L 225.8000030517578 0L 225.8000030517578 35L 0 35Z" stroke="none" fill="none"></path><g id="SvgjsG1135"><text id="SvgjsText1136" font-family="微软雅黑" text-anchor="middle" font-size="13px" width="226px" fill="#f5f5f5" font-weight="700" align="middle" lineHeight="125%" anchor="middle" family="微软雅黑" size="13px" weight="700" font-style="" opacity="1" y="6.875" transform="rotate(0)"><tspan id="SvgjsTspan1137" dy="16" x="113"><tspan id="SvgjsTspan1138" style="text-decoration:;">KDC(Key Distribution Center)</tspan></tspan></text></g></g><g id="SvgjsG1139" transform="translate(115,524.3999996185303)"><path id="SvgjsPath1140" d="M 23.333333333333332 12.5C 23.333333333333332 -4.166666666666666 46.666666666666664 -4.166666666666666 46.666666666666664 12.5C 46.666666666666664 29.166666666666668 23.333333333333332 29.166666666666668 23.333333333333332 12.5M 35 25L 35 75M 35 75L 5.833333333333333 100M 35 75L 64.16666666666666 100M 0 50L 70 50" stroke="rgba(50,50,50,1)" stroke-width="2" fill-opacity="1" fill="#ffffff"></path><path id="SvgjsPath1141" d="M 0 0L 70 0L 70 100L 0 100Z" stroke="none" fill="none"></path><g id="SvgjsG1142"><text id="SvgjsText1143" font-family="微软雅黑" text-anchor="middle" font-size="13px" width="110px" fill="#323232" font-weight="400" align="middle" lineHeight="125%" anchor="middle" family="微软雅黑" size="13px" weight="400" font-style="" opacity="1" y="104.375" transform="rotate(0)"></text></g></g><g id="SvgjsG1144"><path id="SvgjsPath1145" d="M150.4937227042967 523.5303802240467L259.4814173096345 331.564703612382" stroke="#323232" stroke-width="2" fill="none" marker-end="url(#SvgjsMarker1146)"></path></g><g id="SvgjsG1148" transform="translate(25,414.39999771118164)"><path id="SvgjsPath1149" d="M 0 15C 0 -5 30 -5 30 15C 30 35 0 35 0 15Z" stroke="rgba(50,50,50,1)" stroke-width="2" fill-opacity="1" fill="#616161"></path><g id="SvgjsG1150"><text id="SvgjsText1151" font-family="微软雅黑" text-anchor="middle" font-size="13px" width="10px" fill="#f5f5f5" font-weight="400" align="middle" lineHeight="125%" anchor="middle" family="微软雅黑" size="13px" weight="400" font-style="" opacity="1" y="4.375" transform="rotate(0)"><tspan id="SvgjsTspan1152" dy="16" x="15"><tspan id="SvgjsTspan1153" style="text-decoration:;">1</tspan></tspan></text></g></g><g id="SvgjsG1154" transform="translate(61,409.39999771118164)"><path id="SvgjsPath1155" d="M 0 0L 141 0L 141 40L 0 40Z" stroke="none" fill="none"></path><g id="SvgjsG1156"><text id="SvgjsText1157" font-family="微软雅黑" text-anchor="middle" font-size="13px" width="141px" fill="#323232" font-weight="700" align="middle" lineHeight="125%" anchor="middle" family="微软雅黑" size="13px" weight="700" font-style="" opacity="1" y="0.875" transform="rotate(0)"><tspan id="SvgjsTspan1158" dy="16" x="70.5"><tspan id="SvgjsTspan1159" style="text-decoration:;">[ClientID,ServerID]</tspan></tspan><tspan id="SvgjsTspan1160" dy="16" x="70.5"><tspan id="SvgjsTspan1161" style="text-decoration:;">$plaintext</tspan></tspan></text></g></g><g id="SvgjsG1162" transform="translate(516.5999984741211,75.89999198913574)"><path id="SvgjsPath1163" d="M 0 0L 75 0L 75 75L 0 75Z" stroke="none" fill="url(#SvgjsPattern1164)" opacity="1"></path><g id="SvgjsG1166"><text id="SvgjsText1167" font-family="微软雅黑" text-anchor="middle" font-size="13px" width="115px" fill="#f5f5f5" font-weight="700" align="middle" lineHeight="125%" anchor="middle" family="微软雅黑" size="13px" weight="700" font-style="" opacity="1" y="79.375" transform="rotate(0)"><tspan id="SvgjsTspan1168" dy="16" x="37.5"><tspan id="SvgjsTspan1169" style="text-decoration:;">KerberosDB</tspan></tspan></text></g></g><g id="SvgjsG1170"><path id="SvgjsPath1171" d="M371.92253647250146 213.43128793693018L514.4613996783322 114.87863839401089" stroke="#f5f5f5" stroke-width="2" fill="none" marker-end="url(#SvgjsMarker1172)"></path></g><g id="SvgjsG1174" transform="translate(348,112.39999961853027)"><path id="SvgjsPath1175" d="M 0 15C 0 -5 30 -5 30 15C 30 35 0 35 0 15Z" stroke="rgba(50,50,50,1)" stroke-width="2" fill-opacity="1" fill="#616161"></path><g id="SvgjsG1176"><text id="SvgjsText1177" font-family="微软雅黑" text-anchor="middle" font-size="13px" width="10px" fill="#f5f5f5" font-weight="400" align="middle" lineHeight="125%" anchor="middle" family="微软雅黑" size="13px" weight="400" font-style="" opacity="1" y="4.375" transform="rotate(0)"><tspan id="SvgjsTspan1178" dy="16" x="15"><tspan id="SvgjsTspan1179" style="text-decoration:;">2</tspan></tspan></text></g></g><g id="SvgjsG1180" transform="translate(364,104.39999961853027)"><path id="SvgjsPath1181" d="M 0 0L 120 0L 120 40L 0 40Z" stroke="none" fill="none"></path><g id="SvgjsG1182"><text id="SvgjsText1183" font-family="微软雅黑" text-anchor="middle" font-size="13px" width="120px" fill="#323232" font-weight="700" align="middle" lineHeight="125%" anchor="middle" family="微软雅黑" size="13px" weight="700" font-style="" opacity="1" y="9.375" transform="rotate(0)"><tspan id="SvgjsTspan1184" dy="16" x="60"><tspan id="SvgjsTspan1185" style="text-decoration:;">查找ClientID</tspan></tspan></text></g></g><g id="SvgjsG1186"><path id="SvgjsPath1187" d="M370.4935527932432 331.1951245371088L187.1832044511604 571.5375499116475" stroke="#323232" stroke-width="2" fill="none" marker-end="url(#SvgjsMarker1188)"></path></g><g id="SvgjsG1190" transform="translate(271,470.3999996185303)"><path id="SvgjsPath1191" d="M 0 14.5C 0 -4.833333333333333 29 -4.833333333333333 29 14.5C 29 33.833333333333336 0 33.833333333333336 0 14.5Z" stroke="rgba(50,50,50,1)" stroke-width="2" fill-opacity="1" fill="#616161"></path><g id="SvgjsG1192"><text id="SvgjsText1193" font-family="微软雅黑" text-anchor="middle" font-size="13px" width="9px" fill="#f5f5f5" font-weight="400" align="middle" lineHeight="125%" anchor="middle" family="微软雅黑" size="13px" weight="400" font-style="" opacity="1" y="3.875" transform="rotate(0)"><tspan id="SvgjsTspan1194" dy="16" x="14.5"><tspan id="SvgjsTspan1195" style="text-decoration:;">3</tspan></tspan></text></g></g><g id="SvgjsG1196" transform="translate(282,468.3999996185303)"><path id="SvgjsPath1197" d="M 0 0L 429 0L 429 33L 0 33Z" stroke="none" fill="none"></path><g id="SvgjsG1198"><text id="SvgjsText1199" font-family="微软雅黑" text-anchor="middle" font-size="13px" width="429px" fill="#1b5e20" font-weight="700" align="middle" lineHeight="125%" anchor="middle" family="微软雅黑" size="13px" weight="700" font-style="" opacity="1" y="5.875" transform="rotate(0)"><tspan id="SvgjsTspan1200" dy="16" x="214.5"><tspan id="SvgjsTspan1201" style="text-decoration:;">Session消息: [TGSSessionKey,有效期,...] $(client_secret_key)</tspan></tspan></text></g></g><g id="SvgjsG1202" transform="translate(291.5,496.3999996185303)"><path id="SvgjsPath1203" d="M 0 0L 481.5 0L 481.5 31.999998092651367L 0 31.999998092651367Z" stroke="none" fill="none"></path><g id="SvgjsG1204"><text id="SvgjsText1205" font-family="微软雅黑" text-anchor="middle" font-size="13px" width="482px" fill="#212121" font-weight="700" align="middle" lineHeight="125%" anchor="middle" family="微软雅黑" size="13px" weight="700" font-style="" opacity="1" y="5.374999046325684" transform="rotate(0)"><tspan id="SvgjsTspan1206" dy="16" x="241"><tspan id="SvgjsTspan1207" style="text-decoration:;">TGT消息: [TGSSessionKey,HTTPServiceId,有效期,...] $(TGS_secret_key)</tspan></tspan></text></g></g><g id="SvgjsG1208"><path id="SvgjsPath1209" d="M178.71849643474502 624.4338240947999C 200 687.4000072479248 96 677.4000072479248 120.85001769060011 627.0309558018257" stroke="#323232" stroke-width="2" fill="none" marker-end="url(#SvgjsMarker1210)"></path></g><g id="SvgjsG1212" transform="translate(85,684.4000072479248)"><path id="SvgjsPath1213" d="M 0 15C 0 -5 30 -5 30 15C 30 35 0 35 0 15Z" stroke="rgba(50,50,50,1)" stroke-width="2" fill-opacity="1" fill="#616161"></path><g id="SvgjsG1214"><text id="SvgjsText1215" font-family="微软雅黑" text-anchor="middle" font-size="13px" width="10px" fill="#f5f5f5" font-weight="400" align="middle" lineHeight="125%" anchor="middle" family="微软雅黑" size="13px" weight="400" font-style="" opacity="1" y="4.375" transform="rotate(0)"><tspan id="SvgjsTspan1216" dy="16" x="15"><tspan id="SvgjsTspan1217" style="text-decoration:;">4</tspan></tspan></text></g></g><g id="SvgjsG1218" transform="translate(71,683.9000072479248)"><path id="SvgjsPath1219" d="M 0 0L 429 0L 429 33L 0 33Z" stroke="none" fill="none"></path><g id="SvgjsG1220"><text id="SvgjsText1221" font-family="微软雅黑" text-anchor="middle" font-size="13px" width="429px" fill="#1b5e20" font-weight="700" align="middle" lineHeight="125%" anchor="middle" family="微软雅黑" size="13px" weight="700" font-style="" opacity="1" y="5.875" transform="rotate(0)"><tspan id="SvgjsTspan1222" dy="16" x="214.5"><tspan id="SvgjsTspan1223" style="text-decoration:;">Session消息: [TGSSessionKey,有效期,...] $plaintext</tspan></tspan></text></g></g></svg>