<svg id="SvgjsSvg1339" width="1356.4125061035156" height="1016.2250061035156" xmlns="http://www.w3.org/2000/svg" version="1.1" xmlns:xlink="http://www.w3.org/1999/xlink" xmlns:svgjs="http://svgjs.com/svgjs"><defs id="SvgjsDefs1340"><marker id="SvgjsMarker1370" markerWidth="14" markerHeight="10" refX="10" refY="5" viewBox="0 0 14 10" orient="auto" markerUnits="userSpaceOnUse" stroke-dasharray="0,0"><path id="SvgjsPath1371" d="M0,0 L14,5 L0,10 L0,0" fill="#323232" stroke="#323232" stroke-width="1"></path></marker><marker id="SvgjsMarker1406" markerWidth="14" markerHeight="10" refX="10" refY="5" viewBox="0 0 14 10" orient="auto" markerUnits="userSpaceOnUse" stroke-dasharray="0,0"><path id="SvgjsPath1407" d="M0,0 L14,5 L0,10 L0,0" fill="#323232" stroke="#323232" stroke-width="1"></path></marker><marker id="SvgjsMarker1432" markerWidth="14" markerHeight="10" refX="10" refY="5" viewBox="0 0 14 10" orient="auto" markerUnits="userSpaceOnUse" stroke-dasharray="0,0"><path id="SvgjsPath1433" d="M0,0 L14,5 L0,10 L0,0" fill="#323232" stroke="#323232" stroke-width="1"></path></marker><marker id="SvgjsMarker1460" markerWidth="14" markerHeight="10" refX="10" refY="5" viewBox="0 0 14 10" orient="auto" markerUnits="userSpaceOnUse" stroke-dasharray="0,0"><path id="SvgjsPath1461" d="M0,0 L14,5 L0,10 L0,0" fill="#323232" stroke="#323232" stroke-width="1"></path></marker><marker id="SvgjsMarker1482" markerWidth="14" markerHeight="10" refX="10" refY="5" viewBox="0 0 14 10" orient="auto" markerUnits="userSpaceOnUse" stroke-dasharray="0,0"><path id="SvgjsPath1483" d="M0,0 L14,5 L0,10 L0,0" fill="#323232" stroke="#323232" stroke-width="1"></path></marker><marker id="SvgjsMarker1498" markerWidth="14" markerHeight="10" refX="10" refY="5" viewBox="0 0 14 10" orient="auto" markerUnits="userSpaceOnUse" stroke-dasharray="0,0"><path id="SvgjsPath1499" d="M0,0 L14,5 L0,10 L0,0" fill="#323232" stroke="#323232" stroke-width="1"></path></marker><marker id="SvgjsMarker1514" markerWidth="14" markerHeight="10" refX="10" refY="5" viewBox="0 0 14 10" orient="auto" markerUnits="userSpaceOnUse" stroke-dasharray="0,0"><path id="SvgjsPath1515" d="M0,0 L14,5 L0,10 L0,0" fill="#323232" stroke="#323232" stroke-width="1"></path></marker></defs><g id="SvgjsG1341" transform="translate(26.80587077845638,25)"><path id="SvgjsPath1342" d="M 0 4Q 0 0 4 0L 570.9941170145124 0Q 574.9941170145124 0 574.9941170145124 4L 574.9941170145124 337.4000015258789Q 574.9941170145124 341.4000015258789 570.9941170145124 341.4000015258789L 4 341.4000015258789Q 0 341.4000015258789 0 337.4000015258789Z" stroke="rgba(186,104,200,1)" stroke-width="2" fill-opacity="1" fill="#ba68c8"></path><g id="SvgjsG1343"><text id="SvgjsText1344" font-family="微软雅黑" text-anchor="middle" font-size="13px" width="555px" fill="#f5f5f5" font-weight="700" align="middle" lineHeight="125%" anchor="middle" family="微软雅黑" size="13px" weight="700" font-style="" opacity="1" y="160.07500076293945" transform="rotate(0)"></text></g></g><g id="SvgjsG1345" transform="translate(58.408876430251624,202.59601553922312)"><path id="SvgjsPath1346" d="M 0 4Q 0 0 4 0L 199.88453636057392 0Q 203.88453636057392 0 203.88453636057392 4L 203.88453636057392 105.95838553061478Q 203.88453636057392 109.95838553061478 199.88453636057392 109.95838553061478L 4 109.95838553061478Q 0 109.95838553061478 0 105.95838553061478Z" stroke="rgba(56,142,60,1)" stroke-width="2" fill-opacity="1" fill="#1b5e20"></path><g id="SvgjsG1347"><text id="SvgjsText1348" font-family="微软雅黑" text-anchor="middle" font-size="13px" width="184px" fill="#f5f5f5" font-weight="700" align="middle" lineHeight="125%" anchor="middle" family="微软雅黑" size="13px" weight="700" font-style="" opacity="1" y="44.35419276530739" transform="rotate(0)"><tspan id="SvgjsTspan1349" dy="16" x="102"><tspan id="SvgjsTspan1350" style="text-decoration:;">AS(Authentication Server)</tspan></tspan></text></g></g><g id="SvgjsG1351" transform="translate(352.5877146530977,203.0683453677849)"><path id="SvgjsPath1352" d="M 0 4Q 0 0 4 0L 214.51221050669847 0Q 218.51221050669847 0 218.51221050669847 4L 218.51221050669847 105.33165806544264Q 218.51221050669847 109.33165806544264 214.51221050669847 109.33165806544264L 4 109.33165806544264Q 0 109.33165806544264 0 105.33165806544264Z" stroke="rgba(56,142,60,1)" stroke-width="2" fill-opacity="1" fill="#0d47a1"></path><g id="SvgjsG1353"><text id="SvgjsText1354" font-family="微软雅黑" text-anchor="middle" font-size="13px" width="199px" fill="#f5f5f5" font-weight="700" align="middle" lineHeight="125%" anchor="middle" family="微软雅黑" size="13px" weight="700" font-style="" opacity="1" y="44.04082903272132" transform="rotate(0)"><tspan id="SvgjsTspan1355" dy="16" x="109.5"><tspan id="SvgjsTspan1356" style="text-decoration:;">TGS(Ticket Granting Server)</tspan></tspan></text></g></g><g id="SvgjsG1357" transform="translate(24.999984741210938,32.93513535409265)"><path id="SvgjsPath1358" d="M 0 0L 203.88453636057392 0L 203.88453636057392 33.06308799932345L 0 33.06308799932345Z" stroke="none" fill="none"></path><g id="SvgjsG1359"><text id="SvgjsText1360" font-family="微软雅黑" text-anchor="middle" font-size="13px" width="204px" fill="#f5f5f5" font-weight="700" align="middle" lineHeight="125%" anchor="middle" family="微软雅黑" size="13px" weight="700" font-style="" opacity="1" y="5.906543999661725" transform="rotate(0)"><tspan id="SvgjsTspan1361" dy="16" x="102"><tspan id="SvgjsTspan1362" style="text-decoration:;">KDC(Key Distribution Center)</tspan></tspan></text></g></g><g id="SvgjsG1363" transform="translate(981.7999877929688,511.4000015258789)"><path id="SvgjsPath1364" d="M 23.333333333333332 12.5C 23.333333333333332 -4.166666666666666 46.666666666666664 -4.166666666666666 46.666666666666664 12.5C 46.666666666666664 29.166666666666668 23.333333333333332 29.166666666666668 23.333333333333332 12.5M 35 25L 35 75M 35 75L 5.833333333333333 100M 35 75L 64.16666666666666 100M 0 50L 70 50" stroke="rgba(50,50,50,1)" stroke-width="2" fill-opacity="1" fill="#ffffff"></path><path id="SvgjsPath1365" d="M 0 0L 70 0L 70 100L 0 100Z" stroke="none" fill="none"></path><g id="SvgjsG1366"><text id="SvgjsText1367" font-family="微软雅黑" text-anchor="middle" font-size="13px" width="110px" fill="#323232" font-weight="400" align="middle" lineHeight="125%" anchor="middle" family="微软雅黑" size="13px" weight="400" font-style="" opacity="1" y="104.375" transform="rotate(0)"></text></g></g><g id="SvgjsG1368"><path id="SvgjsPath1369" d="M980.9493136591685 560.8743081570001L572.8727588671053 308.6941485337585" stroke="#323232" stroke-width="2" fill="none" marker-end="url(#SvgjsMarker1370)"></path></g><g id="SvgjsG1372" transform="translate(638.39998626709,289.40000343322754)"><path id="SvgjsPath1373" d="M 0 14.5C 0 -4.833333333333333 29 -4.833333333333333 29 14.5C 29 33.833333333333336 0 33.833333333333336 0 14.5Z" stroke="rgba(50,50,50,1)" stroke-width="2" fill-opacity="1" fill="#616161"></path><g id="SvgjsG1374"><text id="SvgjsText1375" font-family="微软雅黑" text-anchor="middle" font-size="13px" width="9px" fill="#f5f5f5" font-weight="400" align="middle" lineHeight="125%" anchor="middle" family="微软雅黑" size="13px" weight="400" font-style="" opacity="1" y="3.875" transform="rotate(0)"><tspan id="SvgjsTspan1376" dy="16" x="14.5"><tspan id="SvgjsTspan1377" style="text-decoration:;">5</tspan></tspan></text></g></g><g id="SvgjsG1378" transform="translate(667.89998626709,318.40000343322754)"><path id="SvgjsPath1379" d="M 0 0L 481.5 0L 481.5 31.999998092651367L 0 31.999998092651367Z" stroke="none" fill="none"></path><g id="SvgjsG1380"><text id="SvgjsText1381" font-family="微软雅黑" text-anchor="middle" font-size="13px" width="482px" fill="#212121" font-weight="700" align="middle" lineHeight="125%" anchor="middle" family="微软雅黑" size="13px" weight="700" font-style="" opacity="1" y="5.374999046325684" transform="rotate(0)"><tspan id="SvgjsTspan1382" dy="16" x="241"><tspan id="SvgjsTspan1383" style="text-decoration:;">TGT消息: [TGSSessionKey,HTTPServiceId,有效期,...] $(TGS_secret_key)</tspan></tspan></text></g></g><g id="SvgjsG1384" transform="translate(303.8287916474706,73.55550781758552)"><path id="SvgjsPath1385" d="M 5.667957942741162 0L 43.09096506288579 0C 50.64824231987401 0 50.64824231987401 17.003873828223487 43.09096506288579 17.003873828223487L 5.667957942741162 17.003873828223487C -1.889319314247054 17.003873828223487 -1.889319314247054 0 5.667957942741162 0Z" stroke="rgba(0,151,167,1)" stroke-width="2" fill-opacity="1" fill="#0097a7"></path><g id="SvgjsG1386"><text id="SvgjsText1387" font-family="微软雅黑" text-anchor="middle" font-size="13px" width="29px" fill="#323232" font-weight="400" align="middle" lineHeight="125%" anchor="middle" family="微软雅黑" size="13px" weight="400" font-style="" opacity="1" y="-2.1230630858882567" transform="rotate(0)"></text></g></g><g id="SvgjsG1388" transform="translate(303.8287916474707,96.2273395885502)"><path id="SvgjsPath1389" d="M 5.667957942741162 0L 43.09096506288579 0C 50.64824231987401 0 50.64824231987401 17.003873828223487 43.09096506288579 17.003873828223487L 5.667957942741162 17.003873828223487C -1.889319314247054 17.003873828223487 -1.889319314247054 0 5.667957942741162 0Z" stroke="rgba(0,151,167,1)" stroke-width="2" fill-opacity="1" fill="#0097a7"></path><g id="SvgjsG1390"><text id="SvgjsText1391" font-family="微软雅黑" text-anchor="middle" font-size="13px" width="29px" fill="#323232" font-weight="400" align="middle" lineHeight="125%" anchor="middle" family="微软雅黑" size="13px" weight="400" font-style="" opacity="1" y="-2.1230630858882567" transform="rotate(0)"></text></g></g><g id="SvgjsG1392" transform="translate(274.0316720329209,106.61859581690896)"><path id="SvgjsPath1393" d="M 0 0L 108.35316223472655 0L 108.35316223472655 37.78638628494108L 0 37.78638628494108Z" stroke="none" fill="none"></path><g id="SvgjsG1394"><text id="SvgjsText1395" font-family="微软雅黑" text-anchor="middle" font-size="13px" width="109px" fill="#f5f5f5" font-weight="700" align="middle" lineHeight="125%" anchor="middle" family="微软雅黑" size="13px" weight="700" font-style="" opacity="1" y="8.26819314247054" transform="rotate(0)"><tspan id="SvgjsTspan1396" dy="16" x="54.5"><tspan id="SvgjsTspan1397" style="text-decoration:;">KerberosDB</tspan></tspan></text></g></g><g id="SvgjsG1398" transform="translate(674.39998626709,289.40000343322754)"><path id="SvgjsPath1399" d="M 0 0L 268 0L 268 38L 0 38Z" stroke="none" fill="none"></path><g id="SvgjsG1400"><text id="SvgjsText1401" font-family="微软雅黑" text-anchor="middle" font-size="13px" width="268px" fill="#0097a7" font-weight="700" align="middle" lineHeight="125%" anchor="middle" family="微软雅黑" size="13px" weight="700" font-style="" opacity="1" y="8.375" transform="rotate(0)"><tspan id="SvgjsTspan1402" dy="16" x="134"><tspan id="SvgjsTspan1403" style="text-decoration:;">认证消息: [ClientID] $(TGS_session_key)</tspan></tspan></text></g></g><g id="SvgjsG1404"><path id="SvgjsPath1405" d="M461.75859555204704 202.07198358137538C 461.8438199064469 158.65438388596775 426.7987957494646 125.51178895937952 385.9731535976972 125.80155504709683" stroke="#323232" stroke-width="2" fill="none" marker-end="url(#SvgjsMarker1406)"></path></g><g id="SvgjsG1408" transform="translate(433.7999877929688,111.01178895937949)"><path id="SvgjsPath1409" d="M 0 14.5C 0 -4.833333333333333 29 -4.833333333333333 29 14.5C 29 33.833333333333336 0 33.833333333333336 0 14.5Z" stroke="rgba(50,50,50,1)" stroke-width="2" fill-opacity="1" fill="#616161"></path><g id="SvgjsG1410"><text id="SvgjsText1411" font-family="微软雅黑" text-anchor="middle" font-size="13px" width="9px" fill="#f5f5f5" font-weight="400" align="middle" lineHeight="125%" anchor="middle" family="微软雅黑" size="13px" weight="400" font-style="" opacity="1" y="3.875" transform="rotate(0)"><tspan id="SvgjsTspan1412" dy="16" x="14.5"><tspan id="SvgjsTspan1413" style="text-decoration:;">6</tspan></tspan></text></g></g><g id="SvgjsG1414" transform="translate(482.39998626708996,128.8388523480159)"><path id="SvgjsPath1415" d="M 0 0L 522.4000015258788 0L 522.4000015258788 24.561151085211634L 0 24.561151085211634Z" stroke="none" fill="none"></path><g id="SvgjsG1416"><text id="SvgjsText1417" font-family="微软雅黑" text-anchor="start" font-size="13px" width="523px" fill="#212121" font-weight="700" align="middle" lineHeight="125%" anchor="start" family="微软雅黑" size="13px" weight="700" font-style="" opacity="1" y="-14.844424457394183" transform="rotate(0)"><tspan id="SvgjsTspan1418" dy="16" x="0"><tspan id="SvgjsTspan1419" style="text-decoration:;">查找 HTTPServiceID是否存在, 解密TGT获取SessionKey,解密认证消息</tspan></tspan><tspan id="SvgjsTspan1420" dy="16" x="0"><tspan id="SvgjsTspan1421" style="text-decoration:;">1. 对比TGT.ClientID == Auth.ClientID </tspan></tspan><tspan id="SvgjsTspan1422" dy="16" x="0"><tspan id="SvgjsTspan1423" style="text-decoration:;font-size: inherit;">2. 检查TGT时间戳和有效期</tspan></tspan></text></g></g><g id="SvgjsG1424" transform="translate(652.7999877929688,273)"><path id="SvgjsPath1425" d="M 0 0L 222 0L 222 25.400001525878906L 0 25.400001525878906Z" stroke="none" fill="none"></path><g id="SvgjsG1426"><text id="SvgjsText1427" font-family="微软雅黑" text-anchor="middle" font-size="13px" width="222px" fill="#0097a7" font-weight="700" align="middle" lineHeight="125%" anchor="middle" family="微软雅黑" size="13px" weight="700" font-style="" opacity="1" y="2.075000762939453" transform="rotate(0)"><tspan id="SvgjsTspan1428" dy="16" x="111"><tspan id="SvgjsTspan1429" style="text-decoration:;">服务消息： HTTPServiceID</tspan></tspan></text></g></g><g id="SvgjsG1430"><path id="SvgjsPath1431" d="M462.7118801558017 312.89646229707245L980.8486190729586 609.227940337146" stroke="#323232" stroke-width="2" fill="none" marker-end="url(#SvgjsMarker1432)"></path></g><g id="SvgjsG1434" transform="translate(83.29998779296875,403)"><path id="SvgjsPath1435" d="M 0 14.5C 0 -4.833333333333333 29 -4.833333333333333 29 14.5C 29 33.833333333333336 0 33.833333333333336 0 14.5Z" stroke="rgba(50,50,50,1)" stroke-width="2" fill-opacity="1" fill="#616161"></path><g id="SvgjsG1436"><text id="SvgjsText1437" font-family="微软雅黑" text-anchor="middle" font-size="13px" width="9px" fill="#f5f5f5" font-weight="400" align="middle" lineHeight="125%" anchor="middle" family="微软雅黑" size="13px" weight="400" font-style="" opacity="1" y="3.875" transform="rotate(0)"><tspan id="SvgjsTspan1438" dy="16" x="14.5"><tspan id="SvgjsTspan1439" style="text-decoration:;">7</tspan></tspan></text></g></g><g id="SvgjsG1440" transform="translate(73.29341279082564,402.23713538423874)"><path id="SvgjsPath1441" d="M 0 0L 611.5065750021431 0L 611.5065750021431 25.5L 0 25.5Z" stroke="none" fill="none"></path><g id="SvgjsG1442"><text id="SvgjsText1443" font-family="微软雅黑" text-anchor="middle" font-size="13px" width="612px" fill="#0097a7" font-weight="700" align="middle" lineHeight="125%" anchor="middle" family="微软雅黑" size="13px" weight="700" font-style="" opacity="1" y="2.125" transform="rotate(0)"><tspan id="SvgjsTspan1444" dy="16" x="306"><tspan id="SvgjsTspan1445" style="text-decoration:;">HTTP Session消息：[HTTPServiceID,HTTPServiceSessionKey]$(TGS_session_key)</tspan></tspan></text></g></g><g id="SvgjsG1446" transform="translate(78.1934143167045,433)"><path id="SvgjsPath1447" d="M 0 0L 725.6065734762644 0L 725.6065734762644 21.800003051757812L 0 21.800003051757812Z" stroke="none" fill="none"></path><g id="SvgjsG1448"><text id="SvgjsText1449" font-family="微软雅黑" text-anchor="middle" font-size="13px" width="726px" fill="#323232" font-weight="700" align="middle" lineHeight="125%" anchor="middle" family="微软雅黑" size="13px" weight="700" font-style="" opacity="1" y="0.27500152587890625" transform="rotate(0)"><tspan id="SvgjsTspan1450" dy="16" x="363"><tspan id="SvgjsTspan1451" style="text-decoration:;">HTTP服务Ticket消息:  [CilentID, HTTPServiceID, HTTPServiceSessionKey]$(HTTP_service_secret_key)</tspan></tspan></text></g></g><g id="SvgjsG1452" transform="translate(63.29341279082564,683.4000015258789)"><path id="SvgjsPath1453" d="M 0 4Q 0 0 4 0L 150.39111136271714 0Q 154.39111136271714 0 154.39111136271714 4L 154.39111136271714 86.4000015258789Q 154.39111136271714 90.4000015258789 150.39111136271714 90.4000015258789L 4 90.4000015258789Q 0 90.4000015258789 0 86.4000015258789Z" stroke="rgba(230,81,0,1)" stroke-width="2" fill-opacity="1" fill="#f57c00"></path><g id="SvgjsG1454"><text id="SvgjsText1455" font-family="微软雅黑" text-anchor="middle" font-size="13px" width="135px" fill="#f5f5f5" font-weight="700" align="middle" lineHeight="125%" anchor="middle" family="微软雅黑" size="13px" weight="700" font-style="" opacity="1" y="34.57500076293945" transform="rotate(0)"><tspan id="SvgjsTspan1456" dy="16" x="77.5"><tspan id="SvgjsTspan1457" style="text-decoration:;">HTTP服务</tspan></tspan></text></g></g><g id="SvgjsG1458"><path id="SvgjsPath1459" d="M988.1999969482422 612.2000122070312L988.1999969482422 715.2000122070312L220.79999694824218 715.2000122070312" stroke="#323232" stroke-width="2" fill="none" marker-end="url(#SvgjsMarker1460)"></path></g><g id="SvgjsG1462" transform="translate(228.88452110178486,654.4000015258789)"><path id="SvgjsPath1463" d="M 0 14.5C 0 -4.833333333333333 29 -4.833333333333333 29 14.5C 29 33.833333333333336 0 33.833333333333336 0 14.5Z" stroke="rgba(50,50,50,1)" stroke-width="2" fill-opacity="1" fill="#616161"></path><g id="SvgjsG1464"><text id="SvgjsText1465" font-family="微软雅黑" text-anchor="middle" font-size="13px" width="9px" fill="#f5f5f5" font-weight="400" align="middle" lineHeight="125%" anchor="middle" family="微软雅黑" size="13px" weight="400" font-style="" opacity="1" y="3.875" transform="rotate(0)"><tspan id="SvgjsTspan1466" dy="16" x="14.5"><tspan id="SvgjsTspan1467" style="text-decoration:;">8</tspan></tspan></text></g></g><g id="SvgjsG1468" transform="translate(228.88452110178486,653.4000015258789)"><path id="SvgjsPath1469" d="M 0 0L 725.6065734762644 0L 725.6065734762644 21.800003051757812L 0 21.800003051757812Z" stroke="none" fill="none"></path><g id="SvgjsG1470"><text id="SvgjsText1471" font-family="微软雅黑" text-anchor="middle" font-size="13px" width="726px" fill="#323232" font-weight="700" align="middle" lineHeight="125%" anchor="middle" family="微软雅黑" size="13px" weight="700" font-style="" opacity="1" y="0.27500152587890625" transform="rotate(0)"><tspan id="SvgjsTspan1472" dy="16" x="363"><tspan id="SvgjsTspan1473" style="text-decoration:;">HTTP服务Ticket消息:  [CilentID, HTTPServiceID, HTTPServiceSessionKey]$(HTTP_service_secret_key)</tspan></tspan></text></g></g><g id="SvgjsG1474" transform="translate(248.8934036355521,676.5742673352499)"><path id="SvgjsPath1475" d="M 0 0L 352.90658415741666 0L 352.90658415741666 36.62574487178131L 0 36.62574487178131Z" stroke="none" fill="none"></path><g id="SvgjsG1476"><text id="SvgjsText1477" font-family="微软雅黑" text-anchor="middle" font-size="13px" width="353px" fill="#0097a7" font-weight="700" align="middle" lineHeight="125%" anchor="middle" family="微软雅黑" size="13px" weight="700" font-style="" opacity="1" y="7.687872435890654" transform="rotate(0)"><tspan id="SvgjsTspan1478" dy="16" x="176.5"><tspan id="SvgjsTspan1479" style="text-decoration:;">认证消息: [ClientID] $(HTTP_service_session_key)</tspan></tspan></text></g></g><g id="SvgjsG1480"><path id="SvgjsPath1481" d="M218.1999969482422 742.2000122070312L1044.1999969482422 742.2000122070312L1044.1999969482422 614.8000122070313" stroke="#323232" stroke-width="2" fill="none" marker-end="url(#SvgjsMarker1482)"></path></g><g id="SvgjsG1484" transform="translate(85.49670105483659,758)"><path id="SvgjsPath1485" d="M 0 0L 725.6065734762644 0L 725.6065734762644 21.800003051757812L 0 21.800003051757812Z" stroke="none" fill="none"></path><g id="SvgjsG1486"><text id="SvgjsText1487" font-family="微软雅黑" text-anchor="middle" font-size="13px" width="726px" fill="#0097a7" font-weight="700" align="middle" lineHeight="125%" anchor="middle" family="微软雅黑" size="13px" weight="700" font-style="" opacity="1" y="0.27500152587890625" transform="rotate(0)"><tspan id="SvgjsTspan1488" dy="16" x="363"><tspan id="SvgjsTspan1489" style="text-decoration:;">认证消息: [HTTPServiceID] $(HTTP_service_session_key)</tspan></tspan></text></g></g><g id="SvgjsG1490" transform="translate(225.2267831785562,750.7000122070312)"><path id="SvgjsPath1491" d="M 0 17.199989318847656C 0 -5.733329772949219 36.31547584645733 -5.733329772949219 36.31547584645733 17.199989318847656C 36.31547584645733 40.13330841064453 0 40.13330841064453 0 17.199989318847656Z" stroke="rgba(50,50,50,1)" stroke-width="2" fill-opacity="1" fill="#616161"></path><g id="SvgjsG1492"><text id="SvgjsText1493" font-family="微软雅黑" text-anchor="middle" font-size="13px" width="17px" fill="#f5f5f5" font-weight="400" align="middle" lineHeight="125%" anchor="middle" family="微软雅黑" size="13px" weight="400" font-style="" opacity="1" y="6.574989318847656" transform="rotate(0)"><tspan id="SvgjsTspan1494" dy="16" x="18.5"><tspan id="SvgjsTspan1495" style="text-decoration:;">10</tspan></tspan></text></g></g><g id="SvgjsG1496"><path id="SvgjsPath1497" d="M192.996743864986 683.2208859719896C 193.1999969482422 645.4000122070313 121.19999694824219 590.2000122070312 96.19999694824219 684.2000122070312" stroke="#323232" stroke-width="2" fill="none" marker-end="url(#SvgjsMarker1498)"></path></g><g id="SvgjsG1500" transform="translate(85.49670105483659,598.7000122070312)"><path id="SvgjsPath1501" d="M 0 14.5C 0 -4.833333333333333 29 -4.833333333333333 29 14.5C 29 33.833333333333336 0 33.833333333333336 0 14.5Z" stroke="rgba(50,50,50,1)" stroke-width="2" fill-opacity="1" fill="#616161"></path><g id="SvgjsG1502"><text id="SvgjsText1503" font-family="微软雅黑" text-anchor="middle" font-size="13px" width="9px" fill="#f5f5f5" font-weight="400" align="middle" lineHeight="125%" anchor="middle" family="微软雅黑" size="13px" weight="400" font-style="" opacity="1" y="3.875" transform="rotate(0)"><tspan id="SvgjsTspan1504" dy="16" x="14.5"><tspan id="SvgjsTspan1505" style="text-decoration:;">9</tspan></tspan></text></g></g><g id="SvgjsG1506" transform="translate(120.29998779296875,595.7000122070312)"><path id="SvgjsPath1507" d="M 0 0L 324.90000915527344 0L 324.90000915527344 32L 0 32Z" stroke="none" fill="none"></path><g id="SvgjsG1508"><text id="SvgjsText1509" font-family="微软雅黑" text-anchor="middle" font-size="13px" width="325px" fill="#323232" font-weight="700" align="middle" lineHeight="125%" anchor="middle" family="微软雅黑" size="13px" weight="700" font-style="" opacity="1" y="5.375" transform="rotate(0)"><tspan id="SvgjsTspan1510" dy="16" x="162.5"><tspan id="SvgjsTspan1511" style="text-decoration:;">私钥解密SessionKey,解密认证消息，验证ClientID etc.</tspan></tspan></text></g></g><g id="SvgjsG1512"><path id="SvgjsPath1513" d="M1052.359129913775 562.2290733495108C 1331.5999965667725 954.2000122070312 220.59999656677246 991.2000122070312 159.42068304360546 780.586740046198" stroke="#323232" stroke-width="2" fill="none" marker-end="url(#SvgjsMarker1514)"></path></g><g id="SvgjsG1516" transform="translate(316.27223880664036,837.0000228881836)"><path id="SvgjsPath1517" d="M 0 17.199989318847656C 0 -5.733329772949219 36.31547584645733 -5.733329772949219 36.31547584645733 17.199989318847656C 36.31547584645733 40.13330841064453 0 40.13330841064453 0 17.199989318847656Z" stroke="rgba(50,50,50,1)" stroke-width="2" fill-opacity="1" fill="#388e3c"></path><g id="SvgjsG1518"><text id="SvgjsText1519" font-family="微软雅黑" text-anchor="middle" font-size="13px" width="17px" fill="#f5f5f5" font-weight="400" align="middle" lineHeight="125%" anchor="middle" family="微软雅黑" size="13px" weight="400" font-style="" opacity="1" y="6.574989318847656" transform="rotate(0)"><tspan id="SvgjsTspan1520" dy="16" x="18.5"><tspan id="SvgjsTspan1521" style="text-decoration:;">11</tspan></tspan></text></g></g><g id="SvgjsG1522" transform="translate(344.9999866485597,839.2000122070312)"><path id="SvgjsPath1523" d="M 0 0L 293.3999996185303 0L 293.3999996185303 31L 0 31Z" stroke="none" fill="none"></path><g id="SvgjsG1524"><text id="SvgjsText1525" font-family="微软雅黑" text-anchor="middle" font-size="13px" width="294px" fill="#323232" font-weight="700" align="middle" lineHeight="125%" anchor="middle" family="微软雅黑" size="13px" weight="700" font-style="" opacity="1" y="4.875" transform="rotate(0)"><tspan id="SvgjsTspan1526" dy="16" x="147"><tspan id="SvgjsTspan1527" style="text-decoration:;">  业务APi请求 $(HTTP_service_session_key)</tspan></tspan></text></g></g></svg>